<svg width="37" height="37" viewBox="0 0 37 37" fill="none" xmlns="http://www.w3.org/2000/svg">
<path d="M23 11.75H7.25C6.65326 11.75 6.08097 11.9871 5.65901 12.409C5.23705 12.831 5 13.4033 5 14V29.75C5 30.3467 5.23705 30.919 5.65901 31.341C6.08097 31.7629 6.65326 32 7.25 32H23C23.5967 32 24.169 31.7629 24.591 31.341C25.0129 30.919 25.25 30.3467 25.25 29.75V14C25.25 13.4033 25.0129 12.831 24.591 12.409C24.169 11.9871 23.5967 11.75 23 11.75ZM23 29.75H7.25V14H23V29.75ZM19.625 6.125C19.625 5.82663 19.7435 5.54048 19.9545 5.32951C20.1655 5.11853 20.4516 5 20.75 5H23C23.2984 5 23.5845 5.11853 23.7955 5.32951C24.0065 5.54048 24.125 5.82663 24.125 6.125C24.125 6.42337 24.0065 6.70952 23.7955 6.92049C23.5845 7.13147 23.2984 7.25 23 7.25H20.75C20.4516 7.25 20.1655 7.13147 19.9545 6.92049C19.7435 6.70952 19.625 6.42337 19.625 6.125ZM32 7.25V8.375C32 8.67337 31.8815 8.95952 31.6705 9.1705C31.4595 9.38147 31.1734 9.5 30.875 9.5C30.5766 9.5 30.2905 9.38147 30.0795 9.1705C29.8685 8.95952 29.75 8.67337 29.75 8.375V7.25H28.625C28.3266 7.25 28.0405 7.13147 27.8295 6.92049C27.6185 6.70952 27.5 6.42337 27.5 6.125C27.5 5.82663 27.6185 5.54048 27.8295 5.32951C28.0405 5.11853 28.3266 5 28.625 5H29.75C30.3467 5 30.919 5.23705 31.341 5.65901C31.7629 6.08097 32 6.65326 32 7.25ZM32 14V16.25C32 16.5484 31.8815 16.8345 31.6705 17.0455C31.4595 17.2565 31.1734 17.375 30.875 17.375C30.5766 17.375 30.2905 17.2565 30.0795 17.0455C29.8685 16.8345 29.75 16.5484 29.75 16.25V14C29.75 13.7016 29.8685 13.4155 30.0795 13.2045C30.2905 12.9935 30.5766 12.875 30.875 12.875C31.1734 12.875 31.4595 12.9935 31.6705 13.2045C31.8815 13.4155 32 13.7016 32 14ZM32 21.875V23C32 23.5967 31.7629 24.169 31.341 24.591C30.919 25.0129 30.3467 25.25 29.75 25.25H28.625C28.3266 25.25 28.0405 25.1315 27.8295 24.9205C27.6185 24.7095 27.5 24.4234 27.5 24.125C27.5 23.8266 27.6185 23.5405 27.8295 23.3295C28.0405 23.1185 28.3266 23 28.625 23H29.75V21.875C29.75 21.5766 29.8685 21.2905 30.0795 21.0795C30.2905 20.8685 30.5766 20.75 30.875 20.75C31.1734 20.75 31.4595 20.8685 31.6705 21.0795C31.8815 21.2905 32 21.5766 32 21.875ZM11.75 8.375V7.25C11.75 6.65326 11.9871 6.08097 12.409 5.65901C12.831 5.23705 13.4033 5 14 5H15.125C15.4234 5 15.7095 5.11853 15.9205 5.32951C16.1315 5.54048 16.25 5.82663 16.25 6.125C16.25 6.42337 16.1315 6.70952 15.9205 6.92049C15.7095 7.13147 15.4234 7.25 15.125 7.25H14V8.375C14 8.67337 13.8815 8.95952 13.6705 9.1705C13.4595 9.38147 13.1734 9.5 12.875 9.5C12.5766 9.5 12.2905 9.38147 12.0795 9.1705C11.8685 8.95952 11.75 8.67337 11.75 8.375Z" fill="white"/>
</svg>
