<svg width="37" height="37" viewBox="0 0 37 37" fill="none" xmlns="http://www.w3.org/2000/svg">
<path d="M18.5075 11.6267C16.652 11.6267 15.221 12.1907 14.216 13.3187C13.211 14.4467 12.71 16.0367 12.71 18.0872C12.71 20.1692 13.049 21.8582 13.7255 23.1542C14.402 24.4517 15.428 25.4687 16.802 26.2082V30.4997H8V26.5007H12.6785C11.135 25.564 9.88559 24.2127 9.0725 22.6007C8.2265 20.9552 7.8035 19.1177 7.8035 17.0867C7.8035 15.1997 8.2415 13.5422 9.1175 12.1112C9.995 10.6817 11.243 9.58218 12.863 8.81268C14.483 8.04318 16.364 7.65918 18.5075 7.65918C21.779 7.65918 24.38 8.51568 26.3135 10.2272C28.247 11.9387 29.213 14.2367 29.213 17.1182C29.213 19.1492 28.7885 20.9732 27.935 22.5932C27.0933 24.2041 25.8278 25.5547 24.275 26.4992H29V30.4997H20.138V26.2082C21.563 25.4702 22.6145 24.4397 23.291 23.1167C23.9675 21.7937 24.3065 20.1077 24.3065 18.0557C24.3065 16.0157 23.801 14.4332 22.7915 13.3097C21.782 12.1892 20.354 11.6267 18.5075 11.6267V11.6267Z" fill="white"/>
</svg>
