<svg width="25" height="25" viewBox="0 0 25 25" fill="none" xmlns="http://www.w3.org/2000/svg">
<path d="M19.9625 6.48125C18.0125 5.51562 15.4344 5 12.5 5C9.56563 5 6.9875 5.51562 5.0375 6.48125C3.0875 7.44687 2 8.825 2 10.25V14.75C2 16.175 3.10625 17.5531 5.0375 18.5187C6.96875 19.4844 9.56563 20 12.5 20C15.4344 20 18.0125 19.4844 19.9625 18.5187C21.9125 17.5531 23 16.175 23 14.75V10.25C23 8.825 21.8938 7.44687 19.9625 6.48125ZM12.5 6.5C18.3687 6.5 21.5 8.675 21.5 10.25C21.5 11.1781 20.4031 12.3313 18.275 13.1094H18.2469C16.7938 13.6344 14.8719 13.9906 12.5 13.9906C10.1281 13.9906 8.20625 13.6344 6.75312 13.1094H6.725C4.59688 12.3313 3.5 11.1781 3.5 10.25C3.5 8.675 6.63125 6.5 12.5 6.5ZM11.75 15.4906V18.4906C9.96875 18.425 8.46875 18.1625 7.25 17.7875V14.8438C8.59062 15.2188 10.1094 15.4344 11.75 15.4906ZM13.25 15.4906C14.8906 15.4344 16.4094 15.2188 17.75 14.8438V17.7875C16.5312 18.1625 15.0312 18.425 13.25 18.4906V15.4906ZM3.5 14.75V13.0156C3.97189 13.4085 4.48786 13.7451 5.0375 14.0187L5.75 14.3375V17.1875C4.26875 16.4563 3.5 15.5281 3.5 14.75ZM19.25 17.1875V14.3375L19.9625 14.0187C20.5121 13.7451 21.0281 13.4085 21.5 13.0156V14.75C21.5 15.5281 20.7313 16.4563 19.25 17.1875Z" fill="white"/>
</svg>
