<svg width="24" height="24" viewBox="0 0 24 24" fill="none" xmlns="http://www.w3.org/2000/svg">
<path d="M4 14C4 15.4667 4.35833 16.804 5.075 18.012C5.79167 19.2207 6.73333 20.175 7.9 20.875C7.61667 20.475 7.396 20.0373 7.238 19.562C7.07933 19.0873 7 18.5833 7 18.05C7 17.3833 7.125 16.7583 7.375 16.175C7.625 15.5917 7.99167 15.0583 8.475 14.575L12 11.1L15.55 14.575C16.0167 15.0417 16.375 15.571 16.625 16.163C16.875 16.7543 17 17.3833 17 18.05C17 18.5833 16.921 19.0873 16.763 19.562C16.6043 20.0373 16.3833 20.475 16.1 20.875C17.2667 20.175 18.2083 19.2207 18.925 18.012C19.6417 16.804 20 15.4667 20 14C20 12.5167 19.6333 11.154 18.9 9.912C18.1667 8.67067 17.2 7.7 16 7L15.55 7.55C15.3333 7.81667 15.096 8.00833 14.838 8.125C14.5793 8.24167 14.3083 8.3 14.025 8.3C13.5083 8.3 13.0417 8.12067 12.625 7.762C12.2083 7.404 12 6.91667 12 6.3V3L10.75 3.737C9.91667 4.229 9 4.94167 8 5.875C7 6.80833 6.08333 7.95833 5.25 9.325C4.41667 10.6917 4 12.25 4 14ZM12 13.9L9.875 15.975C9.59167 16.2583 9.375 16.5793 9.225 16.938C9.075 17.296 9 17.6667 9 18.05C9 18.8667 9.29167 19.5623 9.875 20.137C10.4583 20.7123 11.1667 21 12 21C12.8333 21 13.5417 20.7123 14.125 20.137C14.7083 19.5623 15 18.8667 15 18.05C15 17.65 14.925 17.275 14.775 16.925C14.625 16.575 14.4083 16.2583 14.125 15.975L12 13.9Z" fill="white"/>
</svg>
