<svg width="25" height="25" viewBox="0 0 25 25" fill="none" xmlns="http://www.w3.org/2000/svg">
<path d="M11.5 17.5H13.5V11.5H11.5V17.5ZM12.5 9.5C12.7833 9.5 13.021 9.404 13.213 9.212C13.4043 9.02067 13.5 8.78333 13.5 8.5C13.5 8.21667 13.4043 7.979 13.213 7.787C13.021 7.59567 12.7833 7.5 12.5 7.5C12.2167 7.5 11.9793 7.59567 11.788 7.787C11.596 7.979 11.5 8.21667 11.5 8.5C11.5 8.78333 11.596 9.02067 11.788 9.212C11.9793 9.404 12.2167 9.5 12.5 9.5ZM12.5 22.5C10.1833 21.9167 8.271 20.5873 6.763 18.512C5.25433 16.4373 4.5 14.1333 4.5 11.6V5.5L12.5 2.5L20.5 5.5V11.6C20.5 14.1333 19.746 16.4373 18.238 18.512C16.7293 20.5873 14.8167 21.9167 12.5 22.5ZM12.5 20.4C14.2333 19.85 15.6667 18.75 16.8 17.1C17.9333 15.45 18.5 13.6167 18.5 11.6V6.875L12.5 4.625L6.5 6.875V11.6C6.5 13.6167 7.06667 15.45 8.2 17.1C9.33333 18.75 10.7667 19.85 12.5 20.4Z" fill="white"/>
</svg>
