<svg width="25" height="25" viewBox="0 0 25 25" fill="none" xmlns="http://www.w3.org/2000/svg">
<path d="M12.5 22.5L12.25 19.5H12C9.63333 19.5 7.625 18.675 5.975 17.025C4.325 15.375 3.5 13.3667 3.5 11C3.5 8.63333 4.325 6.625 5.975 4.975C7.625 3.325 9.63333 2.5 12 2.5C13.1833 2.5 14.2873 2.72067 15.312 3.162C16.3373 3.604 17.2377 4.21233 18.013 4.987C18.7877 5.76233 19.3957 6.66233 19.837 7.687C20.279 8.71233 20.5 9.81667 20.5 11C20.5 12.25 20.296 13.45 19.888 14.6C19.4793 15.75 18.921 16.8167 18.213 17.8C17.5043 18.7833 16.6627 19.675 15.688 20.475C14.7127 21.275 13.65 21.95 12.5 22.5ZM14.5 18.85C15.6833 17.85 16.6457 16.6793 17.387 15.338C18.129 13.996 18.5 12.55 18.5 11C18.5 9.18333 17.871 7.64567 16.613 6.387C15.3543 5.129 13.8167 4.5 12 4.5C10.1833 4.5 8.646 5.129 7.388 6.387C6.12933 7.64567 5.5 9.18333 5.5 11C5.5 12.8167 6.12933 14.3543 7.388 15.613C8.646 16.871 10.1833 17.5 12 17.5H14.5V18.85ZM11.975 16.475C12.2583 16.475 12.5 16.375 12.7 16.175C12.9 15.975 13 15.7333 13 15.45C13 15.1667 12.9 14.925 12.7 14.725C12.5 14.525 12.2583 14.425 11.975 14.425C11.6917 14.425 11.45 14.525 11.25 14.725C11.05 14.925 10.95 15.1667 10.95 15.45C10.95 15.7333 11.05 15.975 11.25 16.175C11.45 16.375 11.6917 16.475 11.975 16.475ZM11.25 13.3H12.75C12.75 12.8 12.8 12.45 12.9 12.25C13 12.05 13.3167 11.6833 13.85 11.15C14.15 10.85 14.4 10.525 14.6 10.175C14.8 9.825 14.9 9.45 14.9 9.05C14.9 8.2 14.6127 7.56233 14.038 7.137C13.4627 6.71233 12.7833 6.5 12 6.5C11.2667 6.5 10.65 6.704 10.15 7.112C9.65 7.52067 9.3 8.01667 9.1 8.6L10.5 9.15C10.5833 8.86667 10.7417 8.58733 10.975 8.312C11.2083 8.03733 11.55 7.9 12 7.9C12.45 7.9 12.7877 8.025 13.013 8.275C13.2377 8.525 13.35 8.8 13.35 9.1C13.35 9.38333 13.2667 9.63733 13.1 9.862C12.9333 10.0873 12.7333 10.3167 12.5 10.55C11.9167 11.05 11.5627 11.4457 11.438 11.737C11.3127 12.029 11.25 12.55 11.25 13.3Z" fill="white"/>
</svg>
